/* XPM */
static char *xpm[] = {
/* width height num_colors chars_per_pixel */
"   290    14        2            1",
/* colors */
". c #000000",
"# c #66ff66",
/* pixels */
"..............######........##........######......######....##......##..##########....######....##########....######......######................##..............................##..................####..........................................................................................",
".............########......###.......########....########...##......##..##########...#######....##########...########....########...............##..............................##.................######.........................................................................................",
"............##......##....####......##......##..##......##..##......##..##..........##..................##..##......##..##......##..............##..............................##................##....##..............................................................................##........",
"............##......##....####......##......##..##......##..##......##..##..........##..................##..##......##..##......##..............##..............................##................##....##..............................................................................##........",
"............##.....###......##..............##..........##..##......##..########....##..................##..##......##..##......##....########..########......######......########....######......##....................##......##..........................##..####......######........##........",
"............##....####......##..............##..........##..##......##..#########...##..................##..##......##..##......##...#########..#########....########....#########...########.....##....................##......##..........................##..#####....########.......##........",
"............##...##.##......##...........####.......####....##########..........##..########...........##.....######.....#########..##......##..##......##..##......##..##......##..##......##..######......##########...##....##.............................##....##..##......##..##########....",
"............##..##..##......##.........####.........####....##########..........##..#########.........##......######......########..##......##..##......##..##..........##......##..##......##..######......##########....##..##..............................##....##..##......##..##########....",
"............##.##...##......##........###...............##..........##..........##..##......##.......##.....##......##..........##..##......##..##......##..##..........##......##..##########....##........................##..........##..........##........##........##......##......##........",
"............####....##......##.......###................##..........##..........##..##......##......##......##......##..........##..##......##..##......##..##..........##......##..##########....##........................##..........##.........####.......##........##......##......##........",
"............###.....##......##......##..........##......##..........##..##......##..##......##......##......##......##..........##..##......##..##......##..##..........##......##..##............##......................##..##........##........######......##........##......##......##........",
"............##......##......##......##..........##......##..........##..##......##..##......##......##......##......##..........##..##......##..##......##..##......##..##......##..##............##.....................##....##.......##........######......##........##......##......##........",
".............########.....######....##########...########...........##...########....########.......##.......########.....#######....#########..#########....########....#########...#########....##....................##......##.....##..........####.......##.........########.................",
"..............######......######....##########....######............##....######......######........##........######......######......########..########......######......########....########....##....................##......##....##............##........##..........######.................."
};
