/* XPM */
static char *xpm[] = {
"145 7 2 1",
"  c #000000000000", /* 24 */
"- c #6666ffff6666", /* 113 */
"       ---    -    ---   ---  -   - -----  ---  -----  ---   ---        -               -         --                                             ",
"      -   -  --   -   - -   - -   - -     -         - -   - -   -       -               -        -  -                                       -    ",
"      -  --   -       -     - -   - ----  -         - -   - -   -  ---- ----   ---   ----  ---   -          -   -             - --   ---    -    ",
"      - - -   -     --    --  -----     - ----     -   ---   ---- -   - -   - -   - -   - -   - ---   -----  - -               -  - -   - -----  ",
"      --  -   -    -        -     -     - -   -   -   -   -     - -   - -   - -     -   - -----  -            -     -     -    -    -   -   -    ",
"      -   -   -   -     -   -     - -   - -   -   -   -   -     - -   - -   - -   - -   - -      -           - -    -    ---   -    -   -   -    ",
"       ---   ---  -----  ---      -  ---   ---    -    ---   ---   ---- ----   ---   ----  ----  -          -   -  -      -    -     ---         "};
