/* XPM */
static char *xpm[] = {
"125 147 7 1",
"  c #000000000000", /* 24 */
"- c #ffff00000000", /* 54 */
"0 c #333333333333", /* 67 */
"1 c #cccc99996666", /* 123 */
"2 c #999999999999", /* 153 */
"3 c #00006666cccc", /* 170 */
"4 c #ffffffffffff", /* 239 */
"22222222222222222222222222222222222222222222222222222222222222222222222222222222222222222222222222222222222222222222222222222",
"22222222222222222222222222222222222222222222222222222222222222222222222222222222222222222222222222222222222222222222222222222",
"22222222222222222222222222222222222222222222222222222222222222222222222222222222222222222222222222222222222222222222222222222",
"22224444444444444444444444444444444444444444444444444444444444444444444444444444444444444444444442222222222222222222222222222",
"22244                                                                                           44222-------------------22222",
"2224                                                                                             422---------------------2222",
"2224                                                                                             422---444--4-----4444---2222",
"2224                                                                                             422--4---4-4-----4---4--2222",
"2224                                                                                             422--4-----4-----4---4--2222",
"2224                                                                                             422--4-----4-----4444---2222",
"2224                                                                                             422--4-----4-----4--4---2222",
"2224                                                                                             422--4---4-4-----4---4--2222",
"2224                                                                                             422---444--44444-4---4--2222",
"2224                                                                                             422---------------------2222",
"22244                                                                                           44222-------------------22222",
"22224444444444444444444444444444444444444444444444444444444444444444444444444444444444444444444442222222222222222222222222222",
"22222222222222222222222222222222222222222222222222222222222222222222222222222222222222222222222222222222222222222222222222222",
"22222222222222222222222222222222222222222222222222222222222222222222222222222222222222222222222222222222222222222222222222222",
"22222222222222222222222222222222222222222222222222222222222222222222222222222222222222222222222222222222222222222222222222222",
"22222222222222222222222222222222222222222222222222222222222222222222222222222222222222222222222222222222222222222222222222222",
"22222000000000000000000022222000000000000000000022222000000000000000000022222000000000000000000022222000000000000000000022222",
"22230000000000000000000003330000000000000000000003330000000000000000000003330000000000000000000003220000000000000000000002222",
"22330044440044444004440003330040004044444040004003330004440004440044444003330044440004440040004003320044440044444040000002222",
"22330040004040000040004003330040004040000040004003330040004040004000400003330040004000400044004003320040004040000040000002222",
"22330040004040000040000003330040004040000004040003330040004040000000400003330040004000400040404003320040004040000040000002222",
"22330040004044440040000003330044444044440000400003330040004040000000400003330044440000400040044003320040004044440040000002222",
"22330040004040000040000003330040004040000004040003330040004040000000400003330040004000400040004003320040004040000040000002222",
"22330040004040000040004003330040004040000040004003330040004040004000400003330040004000400040004003320040004040000040000002222",
"22330044440044444004440003330040004044444040004003330004440004440000400003330044440004440040004003320044440044444044444002222",
"22230000000000000000000003330000000000000000000003330000000000000000000003330000000000000000000003220000000000000000000002222",
"22222000000000000000000022222000000000000000000022222000000000000000000022222000000000000000000022222000000000000000000022222",
"22222222222222222222222222222222222222222222222222222222222222222222222222222222222222222222222222222222222222222222222222222",
"22222222222222222222222222222222222222222222222222222222222222222222222222222222222222222222222222222222222222222222222222222",
"22222222222222222222222222222222222222222222222222222222222222222222222222222222222222222222222222222222222222222222222222222",
"22222222222222222222222222222222222222222222222222222222222222222222222222222222222222222222222222222222222222222222222222222",
"22222222222222222222222222222222222222222222222222222222222222222222222222222222222222222222222222222222222222222222222222222",
"22222000000000000000000022222000000000000000000022222000000000000000000022222000000000000000000022222000000000000000000022222",
"22220000000000000000000002220000000000000000000002220000000000000000000002220000000000000000000002220000000000000000000002222",
"22220004440044444004440002220044440004440040000002220004440040004040004002220000000004000040000002220000004000040000000002222",
"22220040004000400040004002220040004040004040000002220040004040004044044002220000000040000400000002220000000400004000000002222",
"22220040000000400040004002220040004040000040000002220040000040004040404002220000000400004000000002220000000040000400000002222",
"22220004440000400040004002220044440040000040000002220004440040004040404002220000004000040000000002220000000004000040000002222",
"22220000004000400040004002220040040040000040000002220000004040004040004002220000000400004000000002220000000040000400000002222",
"22220040004000400040004002220040004040004040000002220040004040004040004002220000000040000400000002220000000400004000000002222",
"22220004440000400004440002220040004004440044444002220004440004440040004002220000000004000040000002220000004000040000000002222",
"22220000000000000000000002220000000000000000000002220000000000000000000002220000000000000000000002220000000000000000000002222",
"22222000000000000000000022222000000000000000000022222000000000000000000022222000000000000000000022222000000000000000000022222",
"22222222222222222222222222222222222222222222222222222222222222222222222222222222222222222222222222222222222222222222222222222",
"22222222222222222222222222222222222222222222222222222222222222222222222222222222222222222222222222222222222222222222222222222",
"22222222222222222222222222222222222222222222222222222222222222222222222222222222222222222222222222222222222222222222222222222",
"22222222222222222222222222211111111111111111111111111111111111111111111111111111111111111111111111222222222222222222222222222",
"22222222222222222222222222111111111111111111111111111111111111111111111111111111111111111111111111122222222222222222222222222",
"22222000000000000000000022111000000000000000000011111000000000000000000011111000000000000000000011122                   22222",
"2222000000000000000000000211000000000000000000000111000000000000000000000111000000000000000000000112                     2222",
"2222000444004000404444400211000000004444000000000111000000004444400000000111000000004444400000000112          4          2222",
"2222004000404000404000000211000000004000400000000111000000004000000000000111000000004000000000000112                     2222",
"2222004000004000404000000211000000004000400000000111000000004000000000000111000000004000000000000112                     2222",
"2222000444004444404444000211000000004000400000000111000000004444000000000111000000004444000000000112        44444        2222",
"2222000000404000404000000211000000004000400000000111000000004000000000000111000000004000000000000112                     2222",
"2222004000404000404000000211000000004000400000000111000000004000000000000111000000004000000000000112                     2222",
"2222000444004000404000000211000000004444000000000111000000004444400000000111000000004000000000000112          4          2222",
"2222000000000000000000000211000000000000000000000111000000000000000000000111000000000000000000000112                     2222",
"22222000000000000000000022111000000000000000000011111000000000000000000011111000000000000000000011122                   22222",
"22222222222222222222222222111111111111111111111111111111111111111111111111111111111111111111111111122222222222222222222222222",
"22222222222222222222222222111111111111111111111111111111111111111111111111111111111111111111111111122222222222222222222222222",
"22222222222222222222222222111111111111111111111111111111111111111111111111111111111111111111111111122222222222222222222222222",
"22222222222222222222222222111111111111111111111111111111111111111111111111111111111111111111111111122222222222222222222222222",
"22222222222222222222222222111111111111111111111111111111111111111111111111111111111111111111111111122222222222222222222222222",
"22222000000000000000000022111000000000000000000011111000000000000000000011111000000000000000000011122                   22222",
"2222000000000000000000000211000000000000000000000111000000000000000000000111000000000000000000000112                     2222",
"2222000444004000404000400211000000000444000000000111000000004444000000000111000000000444000000000112                     2222",
"2222000040004400404000400211000000004000400000000111000000004000400000000111000000004000400000000112        4   4        2222",
"2222000040004040404000400211000000004000400000000111000000004000400000000111000000004000000000000112         4 4         2222",
"2222000040004004400404000211000000004444400000000111000000004444000000000111000000004000000000000112          4          2222",
"2222000040004000400404000211000000004000400000000111000000004000400000000111000000004000000000000112         4 4         2222",
"2222000040004000400040000211000000004000400000000111000000004000400000000111000000004000400000000112        4   4        2222",
"2222000444004000400040000211000000004000400000000111000000004444000000000111000000000444000000000112                     2222",
"2222000000000000000000000211000000000000000000000111000000000000000000000111000000000000000000000112                     2222",
"22222000000000000000000022111000000000000000000011111000000000000000000011111000000000000000000011122                   22222",
"22222222222222222222222222111111111111111111111111111111111111111111111111111111111111111111111111122222222222222222222222222",
"22222222222222222222222222111111111111111111111111111111111111111111111111111111111111111111111111122222222222222222222222222",
"22222222222222222222222222111111111111111111111111111111111111111111111111111111111111111111111111122222222222222222222222222",
"22222222222222222222222222111111111111111111111111111111111111111111111111111111111111111111111111122222222222222222222222222",
"22222222222222222222222222111111111111111111111111111111111111111111111111111111111111111111111111122222222222222222222222222",
"22222000000000000000000022111444444444444444444411111444444444444444444411114444444444444444444441122                   22222",
"2222000000000000000000000211444444444444444444444111444444444444444444444111444444444444444444444112                     2222",
"222200000044400044400000021144444444     44444444111444444444   444444444111444444444   444444444112                     2222",
"2222000004000404000400000211444444444444 4444444411144444444 444 4444444411144444444 444 44444444112                     2222",
"2222000004000404000400000211444444444444 4444444411144444444 444 4444444411144444444 444 44444444112                     2222",
"222200000400040444400000021144444444444 444444444111444444444   444444444111444444444    44444444112        44444        2222",
"22220000040004040040000002114444444444 444444444411144444444 444 44444444111444444444444 44444444112                     2222",
"22220000040004040004000002114444444444 444444444411144444444 444 44444444111444444444444 44444444112                     2222",
"22220000004440040004000002114444444444 4444444444111444444444   444444444111444444444   444444444112                     2222",
"2222000000000000000000000211444444444444444444444111444444444444444444444111444444444444444444444112                     2222",
"22222000000000000000000022111444444444444444444411111444444444444444444411114444444444444444444441122                   22222",
"22222222222222222222222222111111111111111111111111111111111111111111111111111111111111111111111111122222222222222222222222222",
"22222222222222222222222222111111111111111111111111111111111111111111111111111111111111111111111111122222222222222222222222222",
"22222222222222222222222222111111111111111111111111111111111111111111111111111111111111111111111111122222222222222222222222222",
"22222222222222222222222222111111111111111111111111111111111111111111111111111111111111111111111111122222222222222222222222222",
"22222222222222222222222222111111111111111111111111111111111111111111111111111111111111111111111111122222222222222222222222222",
"22222000000000000000000022111444444444444444444411111444444444444444444411114444444444444444444441122                   22222",
"2222000000000000000000000211444444444444444444444111444444444444444444444111444444444444444444444112                     2222",
"222200044400400040444400021144444444 444 4444444411144444444     44444444111444444444   444444444112                     2222",
"222200400040440040400040021144444444 444 4444444411144444444 44444444444411144444444 444444444444112          4          2222",
"222200400040404040400040021144444444 444 4444444411144444444    44444444411144444444 444444444444112          4          2222",
"222200444440400440400040021144444444     44444444111444444444444 4444444411144444444    444444444112        44444        2222",
"2222004000404000404000400211444444444444 44444444111444444444444 4444444411144444444 444 44444444112          4          2222",
"2222004000404000404000400211444444444444 4444444411144444444 444 4444444411144444444 444 44444444112          4          2222",
"2222004000404000404444000211444444444444 44444444111444444444   444444444111444444444   444444444112                     2222",
"2222000000000000000000000211444444444444444444444111444444444444444444444111444444444444444444444112                     2222",
"22222000000000000000000022114444444444444444444411111444444444444444444411114444444444444444444441122                   22222",
"22222222222222222222222222111111111111111111111111111111111111111111111111111111111111111111111111122222222222222222222222222",
"22222222222222222222222222111111111111111111111111111111111111111111111111111111111111111111111111122222222222222222222222222",
"22222222222222222222222222111111111111111111111111111111111111111111111111111111111111111111111111122222222222222222222222222",
"22222222222222222222222222111111111111111111111111111111111111111111111111111111111111111111111111122222222222222222222222222",
"22222222222222222222222222111111111111111111111111111111111111111111111111111111111111111111111111122222222222222222222222222",
"22222000000000000000000022111444444444444444444411111444444444444444444411111444444444444444444411122                   22222",
"2222000000000000000000000211444444444444444444444111444444444444444444444111444444444444444444444112                     2222",
"22220040004004440044440002114444444444 4444444444111444444444   444444444111444444444   444444444112                     2222",
"2222004000404000404000400211444444444  444444444411144444444 444 4444444411144444444 444 44444444112                     2222",
"22220004040040004040004002114444444444 4444444444111444444444444 44444444111444444444444 44444444112                     2222",
"22220000400040004044440002114444444444 44444444441114444444444  4444444441114444444444  444444444112                     2222",
"22220004040040004040040002114444444444 4444444444111444444444 44444444444111444444444444 44444444112                     2222",
"22220040004040004040004002114444444444 444444444411144444444 44444444444411144444444 444 44444444112                     2222",
"2222004000400444004000400211444444444   44444444411144444444     44444444111444444444   444444444112                     2222",
"2222000000000000000000000211444444444444444444444111444444444444444444444111444444444444444444444112                     2222",
"2222200000000000000000002211144444444444444444441111144444444444444444441111144444444444444444441112                     2222",
"2222222222222222222222222211111111111111111111111111111111111111111111111111111111111111111111111112        44444        2222",
"2222222222222222222222222211111111111111111111111111111111111111111111111111111111111111111111111122                     2222",
"2222222222222222222222222211111111111111111111111111111111111111111111111111222222222222222222222222                     2222",
"2222222222222222222222222211111111111111111111111111111111111111111111111112222222222222222222222222                     2222",
"2222222222222222222222222211111111111111111111111111111111111111111111111112222222222222222222222222        44444        2222",
"2222200000000000000000002211144444444444444444441111144444444444444444441112244444444444444444442222                     2222",
"2222000000000000000000000211444444444444444444444111444444444444444444444112444444444444444444444222                     2222",
"2222000000444004444400000211444444444   444444444111444444444444444444444112444444 44444444444444222                     2222",
"222200000400040400000000021144444444 444 44444444111444444444444444444444112444444 44444 44444444222                     2222",
"222200000400000400000000021144444444 44  444444441114444444444444444444441124444     44 444444444222                     2222",
"222200000400000444400000021144444444 4 4 44444444111444444444444444444444112444444 444 4444444444222                     2222",
"222200000400000400000000021144444444  44 444444441114444444444 4444444444112444444 44 44     4444222                     2222",
"222200000400040400000000021144444444 444 44444444111444444444   44444444411244444444 444444444444222                     2222",
"2222000000444004444400000211444444444   4444444441114444444444 4444444444112444444444444444444444222                     2222",
"2222000000000000000000000211444444444444444444444111444444444444444444444112444444444444444444444222                     2222",
"22222000000000000000000022111444444444444444444411111444444444444444444411122444444444444444444422222                   22222",
"22222222222222222222222222111111111111111111111111111111111111111111111111122222222222222222222222222222222222222222222222222",
"22222222222222222222222222211111111111111111111111111111111111111111111111222222222222222222222222222222222222222222222222222",
"22222222222222222222222222222222222222222222222222222222222222222222222222222222222222222222222222222222222222222222222222222",
"22222222222222222222222222222222222222222222222222222222222222222222222222222222222222222222222222222222222222222222222222222"};
