/* XPM */
static char *hcalc_icon[] = {
/* columns rows colors chars-per-pixel */
"15 18 224 2",
"   c #081408150816",
".  c #0E9F0EC20EE6",
"X  c #166B16591648",
"o  c #1AC918681608",
"O  c #24DC250F2543",
"+  c #266327C327CA",
"@  c #2869286C286F",
"#  c #292B29192907",
"$  c #29DE298B2939",
"%  c #2A0F29B12954",
"&  c #32C632F9332C",
"*  c #35D53608363C",
"=  c #36F437273759",
"-  c #394635DB3270",
";  c #393F397239A5",
":  c #3D6B3D9E3DD1",
">  c #3DA33DC83DEE",
",  c #3EFC3EFC3EFC",
"<  c #403E3CE13983",
"1  c #41203DC13A63",
"2  c #42443ED93B6E",
"3  c #4264429742CA",
"4  c #475743F84098",
"5  c #48D8464E43C5",
"6  c #4C71491145B0",
"7  c #486F49714971",
"8  c #4A4B4A4B4A4B",
"9  c #4C4A4C4B4C4C",
"0  c #586C586C586C",
"q  c #5B4B5B4B5B4B",
"w  c #5DC65DC65DC6",
"e  c #5DF05DF35DF5",
"r  c #6D165DE64EB7",
"t  c #675C527B5229",
"y  c #61A15E455AE9",
"u  c #749B60D14D07",
"i  c #777763574F38",
"p  c #7B3663314B2C",
"a  c #798863564D24",
"s  c #7B7E64C74E10",
"d  c #7D83657E4D7A",
"f  c #7EAA66304DB6",
"g  c #7C2B65744EBD",
"h  c #7F96671C4EA1",
"j  c #60025FE05FBD",
"k  c #64D461775E19",
"l  c #72B762C652D4",
"z  c #76CD666F5610",
"x  c #773C674B5759",
"c  c #790764E750C7",
"v  c #7A1B66525289",
"b  c #7DE96732507B",
"n  c #7E2B677450BD",
"m  c #7D9F697F555F",
"M  c #7EA86A885668",
"N  c #72BE6595586B",
"B  c #757E66DE583D",
"V  c #75E467325881",
"C  c #769267635833",
"Z  c #76DE68205962",
"A  c #706167EF5F7E",
"S  c #77716A2C5CE8",
"D  c #790A68BA586B",
"F  c #7A096A175A26",
"G  c #7AEE6AFC5B0B",
"H  c #7B2C6BB95C46",
"J  c #557363F37273",
"K  c #5ECD6A237579",
"L  c #5CD16E287F7E",
"P  c #604060406040",
"I  c #622562256225",
"U  c #640F63A96343",
"Y  c #67A6651B6290",
"T  c #6454646D6486",
"R  c #66FD66FA66F8",
"E  c #69FB66976333",
"W  c #681A686468AF",
"Q  c #6B826B856B87",
"!  c #6EC96D306B96",
"~  c #6BE96C066C23",
"^  c #6CB66D006D4B",
"/  c #6D356D686D9B",
"(  c #6FDE6FDE6FDE",
")  c #716C695F6152",
"_  c #722C69BA6147",
"`  c #776468186818",
"'  c #71486DE96A89",
"]  c #71BD6E5F6B01",
"[  c #72636F086BAD",
"{  c #70386F2D6E24",
"}  c #7F95702260AF",
"|  c #73A270386CCE",
" . c #748271EE6F5A",
".. c #632B6B507375",
"X. c #6F976FCA6FFC",
"o. c #61336FB37E32",
"O. c #653270AF7C1C",
"+. c #6B70733D7B0B",
"@. c #6F0C74A87A43",
"#. c #693C74927FE8",
"$. c #6B22751D7F18",
"%. c #70D870D870D8",
"&. c #718871BB71EE",
"*. c #72727277727D",
"=. c #72CF73027335",
"-. c #76CF73747018",
";. c #770473A57046",
":. c #749C74A974B5",
">. c #7483750C74D3",
",. c #74F375227551",
"<. c #7530755D758A",
"1. c #764076737673",
"2. c #776376BF7608",
"3. c #76B276E57718",
"4. c #76C876FB772F",
"5. c #7757776B777E",
"6. c #7DB9716D7146",
"7. c #794C75ED728E",
"8. c #79D276837334",
"9. c #7A3776D77377",
"0. c #78537739761F",
"q. c #7DBD76E776E7",
"w. c #7BB1785074EF",
"e. c #796F780F76AF",
"r. c #7BB0791B7687",
"t. c #7C5978F87597",
"y. c #7CFE79A07643",
"u. c #7C7479DD7745",
"i. c #7E137AB47756",
"p. c #75867A087DE9",
"a. c #78F079427993",
"s. c #7A4879DB796D",
"d. c #7A3D7A4E7A5F",
"f. c #7B597B597B59",
"g. c #7CC27BCF7ADD",
"h. c #7D5D7D607D64",
"j. c #7E117E357E5A",
"k. c #7F457F457F45",
"l. c #809E68244FAA",
"z. c #81A6692C50B2",
"x. c #818C7A3B7CE6",
"c. c #BC5176907690",
"v. c #D741582C582C",
"b. c #EB294DD24DD4",
"n. c #E22858625845",
"m. c #D04D63CF63CF",
"M. c #C8A66B186B18",
"N. c #6A7D766D825C",
"B. c #6D6D77688163",
"V. c #6ADF795E87DD",
"C. c #72337A0181CE",
"Z. c #73B47A718253",
"A. c #786681EF8B78",
"S. c #80E080E080E0",
"D. c #816B816A816A",
"F. c #823382338233",
"G. c #B8D0ABA29E75",
"H. c #B0BFB0D7B0EF",
"J. c #B514B363B1B2",
"K. c #CADFB5239F65",
"L. c #C4D3B5F7A71A",
"P. c #CA86B596A0A5",
"I. c #CA88B739A3EA",
"U. c #CFB3B931A2AF",
"Y. c #CF46BA56A565",
"T. c #CC6CB9ECA76D",
"R. c #CC8BBA4AA80A",
"E. c #CF2FBBE0A892",
"W. c #CFD7BE76AD15",
"Q. c #D061BAA4A4E7",
"!. c #D1CFBF50ACD0",
"~. c #C8C4BDCDB2D5",
"^. c #D2DCC125AF6F",
"/. c #C837C430C028",
"(. c #CF2AC3C6B862",
"). c #D4ADC3EDB32C",
"_. c #D7D0C478B121",
"`. c #D758C4CFB246",
"'. c #D7C7C5C0B3B8",
"]. c #D0C2C29DB479",
"[. c #D34DC4ABB60A",
"{. c #D1DBC501B827",
"}. c #D6BEC5D0B4E1",
"|. c #D9E5C76BB4F0",
" X c #D94CC80BB6CB",
".X c #DF89CBC3B7FD",
"XX c #D65FC77BB896",
"oX c #D1C2C896BF6A",
"OX c #D4D1CA08BF3E",
"+X c #D74FCBB8C021",
"@X c #DA07C960B8BA",
"#X c #DFE8CD5FBAD6",
"$X c #D93FCBEBBE96",
"%X c #DAF4CC52BDB1",
"&X c #DA3DCCE8BF94",
"*X c #E217C69BAB1E",
"=X c #E193C75AAD21",
"-X c #E31FC89BAE17",
";X c #E194C8B8AFDC",
":X c #E3C0C93DAEB9",
">X c #E3F0CA0FB02D",
",X c #E222C947B06B",
"<X c #E3CBCA49B0C8",
"1X c #E3DFCA5EB0DC",
"2X c #E4FCCD6BB5DB",
"3X c #E5FBCE2FB663",
"4X c #E426CE86B8E5",
"5X c #E431CFA3BB16",
"6X c #E647CFDAB96E",
"7X c #E695D029B9BC",
"8X c #E4C4D036BBA9",
"9X c #E7DCD263BCEB",
"0X c #E539D232BF2C",
"qX c #C79AC7FFC864",
"wX c #D075C8FAC17F",
"eX c #DB16CE65C1B5",
"rX c #D25ED05DCE5B",
"tX c #E572D431C2F1",
"yX c #E8CED4C1C0B3",
"uX c #EBCDD6CEC1CF",
"iX c #EA14D692C310",
"pX c #E8A9D721C599",
"aX c #E316D704CAF3",
"sX c #EE58E332D80C",
/* pixels */
",.8 8 8 8 8 8 8 8 8 7 ` m.v.c.",
"U @ $ $ # $ $ # % $ + t n.b.M.",
"A.h.@.N.g.+.B.0.$.C.2.Z.x.6.q.",
"V.s...L e.K o.! J #.{ O.p.>.3.",
"S.:.5.j.,.^ a.<.h.W T ~ R T 1.",
"j.Q *.u.-.[ 9.8.w.k y Y j e ( ",
"S.5.r.S _ B D ) z Z A N 5 > P ",
"k.4.| v C a d V p a r u 2 * q ",
"f.&.7.m F g h H f s l i 4 : w ",
"f.X.;.M G n z.} l.b x c 4 : w ",
":.:.] E.%X4X2X].2X4X[.I.1 & q ",
"4.*.' Y.tX3X<X).1X2X XP.4 ; P ",
"F.d.y.!.&X8X6X{.7X5X$XT.< = 0 ",
"D.3.i.Q.#X,X:X'.-X;X`.K.6 3 I ",
"d.=.i.^.aXiX9X+X9XyXeXR.- O 0 ",
"k.<.t.U..X>X*X_.=X@XoXG.o . , ",
"%./ E W.(.0XuXsXpXwXrXJ.X   , ",
"d.<. .L.~.}.|.OXXX/.qXH.9 , R "
};
